<mxfile host="app.diagrams.net" modified="2023-10-28T22:13:08.200Z" agent="Mozilla/5.0 (Windows NT 10.0; Win64; x64) AppleWebKit/537.36 (KHTML, like Gecko) Chrome/118.0.0.0 Safari/537.36 Edg/118.0.2088.46" version="22.0.8" etag="VWAREpvaN1SgUSt9N5bz" type="github">
  <diagram name="PÃ¡gina-1" id="NwachlrDwHxbFGPM5szR">
    <mxGraphModel>
      <root>
        <mxCell id="0" />
        <mxCell id="1" parent="0" />
      </root>
    </mxGraphModel>
  </diagram>
</mxfile>
